<?xml version="1.0" encoding="UTF-8" standalone="no"?>
<svg
   xmlns:dc="http://purl.org/dc/elements/1.1/"
   xmlns:cc="http://creativecommons.org/ns#"
   xmlns:rdf="http://www.w3.org/1999/02/22-rdf-syntax-ns#"
   xmlns:svg="http://www.w3.org/2000/svg"
   xmlns="http://www.w3.org/2000/svg"
   xmlns:xlink="http://www.w3.org/1999/xlink"
   xmlns:sodipodi="http://sodipodi.sourceforge.net/DTD/sodipodi-0.dtd"
   xmlns:inkscape="http://www.inkscape.org/namespaces/inkscape"
   width="48"
   height="48"
   viewBox="0 0 12.7 12.7"
   version="1.1"
   id="svg8"
   inkscape:version="1.0.1 (3bc2e813f5, 2020-09-07)"
   sodipodi:docname="io.elementary.meteo.svg">
  <defs
     id="defs2">
    <linearGradient
       inkscape:collect="always"
       id="linearGradient46">
      <stop
         style="stop-color:#f9f9f9;stop-opacity:1"
         offset="0"
         id="stop42" />
      <stop
         style="stop-color:#ffb380;stop-opacity:1"
         offset="1"
         id="stop44" />
    </linearGradient>
    <linearGradient
       inkscape:collect="always"
       id="linearGradient1391">
      <stop
         style="stop-color:#ececec;stop-opacity:1;"
         offset="0"
         id="stop1387" />
      <stop
         style="stop-color:#ececec;stop-opacity:1"
         offset="0.40867913"
         id="stop1395" />
      <stop
         style="stop-color:#cccccc;stop-opacity:1"
         offset="1"
         id="stop1389" />
    </linearGradient>
    <linearGradient
       inkscape:collect="always"
       id="linearGradient1160">
      <stop
         style="stop-color:#ffffff;stop-opacity:1;"
         offset="0"
         id="stop1156" />
      <stop
         style="stop-color:#ffffff;stop-opacity:0;"
         offset="1"
         id="stop1158" />
    </linearGradient>
    <linearGradient
       inkscape:collect="always"
       id="linearGradient1018">
      <stop
         style="stop-color:#aaccff;stop-opacity:1"
         offset="0"
         id="stop1014" />
      <stop
         style="stop-color:#00112b;stop-opacity:1"
         offset="1"
         id="stop1016" />
    </linearGradient>
    <linearGradient
       inkscape:collect="always"
       xlink:href="#linearGradient1018"
       id="linearGradient1020"
       x1="7.1992192"
       y1="34.352524"
       x2="23.810547"
       y2="34.352524"
       gradientUnits="userSpaceOnUse"
       gradientTransform="matrix(0.18037597,0,0,0.18037597,1.2450125,0.16992083)" />
    <radialGradient
       inkscape:collect="always"
       xlink:href="#linearGradient1160"
       id="radialGradient1162"
       cx="4.9719791"
       cy="10.816138"
       fx="4.9719791"
       fy="10.816138"
       r="1.5632626"
       gradientUnits="userSpaceOnUse"
       gradientTransform="matrix(0.36851952,0.83871379,-0.66713248,0.2931226,9.1689219,0.73780178)" />
    <linearGradient
       inkscape:collect="always"
       xlink:href="#linearGradient1391"
       id="linearGradient1393"
       x1="9.0546036"
       y1="8.9863901"
       x2="13.366254"
       y2="10.567266"
       gradientUnits="userSpaceOnUse"
       gradientTransform="matrix(0.72868826,0,0,0.72868826,0.19673036,0.19673036)" />
    <radialGradient
       inkscape:collect="always"
       xlink:href="#linearGradient46"
       id="radialGradient48"
       cx="4.0356946"
       cy="-7.9879642"
       fx="4.0356946"
       fy="-7.9879642"
       r="1.2562453"
       gradientUnits="userSpaceOnUse"
       gradientTransform="matrix(0.68470251,-0.63852582,0.45785521,0.49096696,4.9634075,-1.5715812)" />
  </defs>
  <sodipodi:namedview
     id="base"
     pagecolor="#ffffff"
     bordercolor="#666666"
     borderopacity="1.0"
     inkscape:pageopacity="0.0"
     inkscape:pageshadow="2"
     inkscape:zoom="15.839192"
     inkscape:cx="24.256397"
     inkscape:cy="27.939068"
     inkscape:document-units="px"
     inkscape:current-layer="layer1"
     inkscape:document-rotation="0"
     showgrid="false"
     units="px"
     inkscape:window-width="1280"
     inkscape:window-height="961"
     inkscape:window-x="1440"
     inkscape:window-y="30"
     inkscape:window-maximized="1" />
  <metadata
     id="metadata5">
    <rdf:RDF>
      <cc:Work
         rdf:about="">
        <dc:format>image/svg+xml</dc:format>
        <dc:type
           rdf:resource="http://purl.org/dc/dcmitype/StillImage" />
        <dc:title />
      </cc:Work>
    </rdf:RDF>
  </metadata>
  <g
     inkscape:label="Слой 1"
     inkscape:groupmode="layer"
     id="layer1">
    <circle
       style="fill:#808000;stroke-width:0.192799"
       id="path12"
       cx="6.366291"
       cy="6.366291"
       r="5.6411829" />
    <circle
       style="fill:url(#radialGradient48);fill-opacity:1;stroke-width:0.118748"
       id="path17"
       cx="4.2160563"
       cy="-8.4032021"
       transform="rotate(90)"
       r="1.0792003" />
    <rect
       style="fill:#ffe680;stroke-width:0.161208"
       id="rect27-35"
       width="0.54169035"
       height="0.33925185"
       x="-4.8364534"
       y="-9.0664234"
       transform="rotate(135)" />
    <path
       id="rect1001"
       style="fill:#37abc8;fill-opacity:1;stroke:url(#linearGradient1020);stroke-width:0.180376;stroke-opacity:0.395698"
       d="M 4.0366123,2.7659962 A 0.68415864,0.74335849 0 0 0 3.3577366,3.5093425 0.68415864,0.74335849 0 0 0 3.3827494,3.7090948 V 7.3141486 A 1.4080843,1.4080843 0 0 0 2.6337665,8.5584601 1.4080843,1.4080843 0 0 0 4.0418969,9.9665913 1.4080843,1.4080843 0 0 0 5.4496751,8.5584601 1.4080843,1.4080843 0 0 0 4.700692,7.3141486 V 3.7083903 A 0.68415864,0.74335849 0 0 0 4.726057,3.5093425 0.68415864,0.74335849 0 0 0 4.0418966,2.7659962 a 0.68415864,0.74335849 0 0 0 -0.00528,0 z" />
    <rect
       style="fill:#ffffff;fill-opacity:1;stroke:none;stroke-width:0.187198;stroke-opacity:0.395698"
       id="rect1024"
       width="1.0687624"
       height="0.15419002"
       x="3.418865"
       y="5.1289601" />
    <rect
       style="fill:#ffffff;fill-opacity:1;stroke:none;stroke-width:0.187198;stroke-opacity:0.395698"
       id="rect1024-8"
       width="1.0687624"
       height="0.15419002"
       x="3.418865"
       y="6.7040558" />
    <rect
       style="fill:#ffffff;fill-opacity:1;stroke:none;stroke-width:0.187198;stroke-opacity:0.395698"
       id="rect1024-7"
       width="1.0687624"
       height="0.15419002"
       x="3.418865"
       y="3.5538635" />
    <rect
       style="fill:#ffffff;fill-opacity:1;stroke:none;stroke-width:0.108315;stroke-opacity:0.395698"
       id="rect1024-61-9"
       width="0.44203776"
       height="0.12481065"
       x="3.418865"
       y="4.3561015" />
    <rect
       style="fill:#ffffff;fill-opacity:1;stroke:none;stroke-width:0.108315;stroke-opacity:0.395698"
       id="rect1024-61-9-5"
       width="0.44203776"
       height="0.12481065"
       x="3.418865"
       y="3.9696722" />
    <rect
       style="fill:#ffffff;fill-opacity:1;stroke:none;stroke-width:0.108315;stroke-opacity:0.395698"
       id="rect1024-61-9-9"
       width="0.44203776"
       height="0.12481065"
       x="3.418865"
       y="4.7425308" />
    <rect
       style="fill:#ffffff;fill-opacity:1;stroke:none;stroke-width:0.108315;stroke-opacity:0.395698"
       id="rect1024-61-9-2"
       width="0.44203776"
       height="0.12481065"
       x="3.418865"
       y="5.5447688" />
    <rect
       style="fill:#ffffff;fill-opacity:1;stroke:none;stroke-width:0.108315;stroke-opacity:0.395698"
       id="rect1024-61-9-28"
       width="0.44203776"
       height="0.12481065"
       x="3.418865"
       y="5.9311981" />
    <rect
       style="fill:#ffffff;fill-opacity:1;stroke:none;stroke-width:0.108315;stroke-opacity:0.395698"
       id="rect1024-61-9-97"
       width="0.44203776"
       height="0.12481065"
       x="3.418865"
       y="6.3176274" />
    <path
       id="path1154"
       style="fill:url(#radialGradient1162);fill-opacity:1;stroke:none;stroke-width:0.192799;stroke-opacity:0.395698"
       d="M 3.6042227,7.0448523 V 7.5057619 A 1.1391311,1.1391311 0 0 0 2.9026912,8.5574942 1.1391311,1.1391311 0 0 0 4.0417855,9.6965887 1.1391311,1.1391311 0 0 0 5.1808798,8.5574942 1.1391311,1.1391311 0 0 0 4.4793485,7.5057619 V 7.0448523 Z" />
    <rect
       style="fill:#ffe680;stroke-width:0.161208"
       id="rect27-35-3"
       width="0.54169035"
       height="0.33925185"
       x="-1.6322552"
       y="-9.0664234"
       transform="rotate(135)" />
    <rect
       style="fill:#ffe680;stroke-width:0.161208"
       id="rect27-35-6"
       width="0.54169035"
       height="0.33925185"
       x="-7.0544033"
       y="-4.3761206"
       transform="scale(-1)" />
    <rect
       style="fill:#ffe680;stroke-width:0.161208"
       id="rect27-35-1"
       width="0.54169035"
       height="0.33925185"
       x="-7.5658188"
       y="2.7782893"
       transform="rotate(-135)" />
    <rect
       style="fill:#ffe680;stroke-width:0.161208"
       id="rect27-35-2"
       width="0.54169035"
       height="0.33925185"
       x="2.3564456"
       y="-8.5451021"
       transform="rotate(90)" />
    <rect
       style="fill:#ffe680;stroke-width:0.161208"
       id="rect27-35-9"
       width="0.54169035"
       height="0.33925185"
       x="-6.067122"
       y="8.2058506"
       transform="rotate(-90)"
       inkscape:transform-center-x="-1.9376451"
       inkscape:transform-center-y="-1.8089258" />
    <rect
       style="fill:#ffe680;stroke-width:0.161208"
       id="rect27-35-94"
       width="0.54169035"
       height="0.33925185"
       x="-10.262623"
       y="-4.3761206"
       transform="scale(-1)" />
    <rect
       style="fill:#ffe680;stroke-width:0.161208"
       id="rect27-35-7"
       width="0.54169035"
       height="0.33925185"
       x="-10.78583"
       y="2.7782893"
       transform="rotate(-135)" />
    <path
       id="path1368"
       style="fill:url(#linearGradient1393);fill-opacity:1;stroke:none;stroke-width:0.192799;stroke-opacity:0.395698"
       d="M 7.8773785,5.8059623 A 1.3837373,0.75685285 0 0 0 6.5292935,6.392643 1.5311025,0.84006541 0 0 0 5.6323273,7.1574367 1.5311025,0.84006541 0 0 0 6.2623123,7.8363745 1.373166,0.38614496 0 0 0 5.7287267,8.1417648 1.373166,0.38614496 0 0 0 7.1016649,8.5281153 1.373166,0.38614496 0 0 0 7.2786481,8.5246906 1.2601299,0.80376369 0 0 0 8.5024685,9.1373542 1.2601299,0.80376369 0 0 0 9.7628149,8.3337749 1.2601299,0.80376369 0 0 0 9.7617219,8.3081689 1.5327674,0.35606908 0 0 0 10.781823,7.9726538 1.5327674,0.35606908 0 0 0 10.460957,7.7546609 1.7816568,0.96938454 0 0 0 11.33307,6.9213336 1.7816568,0.96938454 0 0 0 9.5515645,5.9516913 1.7816568,0.96938454 0 0 0 8.8571881,6.0285094 1.3837373,0.75685285 0 0 0 7.8773785,5.8059623 Z" />
  </g>
</svg>
