<?xml version="1.0" encoding="UTF-8" standalone="no"?>
<svg
   xmlns:dc="http://purl.org/dc/elements/1.1/"
   xmlns:cc="http://creativecommons.org/ns#"
   xmlns:rdf="http://www.w3.org/1999/02/22-rdf-syntax-ns#"
   xmlns:svg="http://www.w3.org/2000/svg"
   xmlns="http://www.w3.org/2000/svg"
   xmlns:xlink="http://www.w3.org/1999/xlink"
   xmlns:sodipodi="http://sodipodi.sourceforge.net/DTD/sodipodi-0.dtd"
   xmlns:inkscape="http://www.inkscape.org/namespaces/inkscape"
   width="24"
   height="24"
   viewBox="0 0 6.35 6.35"
   version="1.1"
   id="svg8"
   inkscape:version="1.0.1 (3bc2e813f5, 2020-09-07)"
   sodipodi:docname="io.elementary.meteo.svg">
  <defs
     id="defs2">
    <linearGradient
       inkscape:collect="always"
       id="linearGradient46">
      <stop
         style="stop-color:#f9f9f9;stop-opacity:1"
         offset="0"
         id="stop42" />
      <stop
         style="stop-color:#ffb380;stop-opacity:1"
         offset="1"
         id="stop44" />
    </linearGradient>
    <linearGradient
       inkscape:collect="always"
       id="linearGradient1391">
      <stop
         style="stop-color:#ececec;stop-opacity:1;"
         offset="0"
         id="stop1387" />
      <stop
         style="stop-color:#ececec;stop-opacity:1"
         offset="0.40867913"
         id="stop1395" />
      <stop
         style="stop-color:#cccccc;stop-opacity:1"
         offset="1"
         id="stop1389" />
    </linearGradient>
    <linearGradient
       inkscape:collect="always"
       id="linearGradient1160">
      <stop
         style="stop-color:#ffffff;stop-opacity:1;"
         offset="0"
         id="stop1156" />
      <stop
         style="stop-color:#ffffff;stop-opacity:0;"
         offset="1"
         id="stop1158" />
    </linearGradient>
    <linearGradient
       inkscape:collect="always"
       id="linearGradient1018">
      <stop
         style="stop-color:#aaccff;stop-opacity:1"
         offset="0"
         id="stop1014" />
      <stop
         style="stop-color:#00112b;stop-opacity:1"
         offset="1"
         id="stop1016" />
    </linearGradient>
    <linearGradient
       inkscape:collect="always"
       xlink:href="#linearGradient1018"
       id="linearGradient1020"
       x1="7.1992192"
       y1="34.352524"
       x2="23.810547"
       y2="34.352524"
       gradientUnits="userSpaceOnUse"
       gradientTransform="matrix(0.09184039,0,0,0.09184039,0.58320296,0.02509017)" />
    <radialGradient
       inkscape:collect="always"
       xlink:href="#linearGradient1160"
       id="radialGradient1162"
       cx="4.9719791"
       cy="10.816138"
       fx="4.9719791"
       fy="10.816138"
       r="1.5632626"
       gradientUnits="userSpaceOnUse"
       gradientTransform="matrix(0.18763573,0.42704027,-0.33967777,0.14924657,4.6177477,0.31423294)" />
    <linearGradient
       inkscape:collect="always"
       xlink:href="#linearGradient1391"
       id="linearGradient1393"
       x1="9.0546036"
       y1="8.9863901"
       x2="13.366254"
       y2="10.567266"
       gradientUnits="userSpaceOnUse"
       gradientTransform="matrix(0.37101957,0,0,0.37101957,0.04945865,0.03874053)" />
    <radialGradient
       inkscape:collect="always"
       xlink:href="#linearGradient46"
       id="radialGradient48"
       cx="1.9829683"
       cy="-4.0339303"
       fx="1.9829683"
       fy="-4.0339303"
       r="0.63963097"
       gradientUnits="userSpaceOnUse"
       gradientTransform="matrix(0.58519569,-0.53257759,0.57862085,0.6357889,3.1605125,-0.45359626)" />
  </defs>
  <sodipodi:namedview
     id="base"
     pagecolor="#ffffff"
     bordercolor="#666666"
     borderopacity="1.0"
     inkscape:pageopacity="0.0"
     inkscape:pageshadow="2"
     inkscape:zoom="31.678384"
     inkscape:cx="14.170457"
     inkscape:cy="11.970377"
     inkscape:document-units="px"
     inkscape:current-layer="layer1"
     inkscape:document-rotation="0"
     showgrid="false"
     units="px"
     inkscape:window-width="1280"
     inkscape:window-height="961"
     inkscape:window-x="1440"
     inkscape:window-y="30"
     inkscape:window-maximized="1" />
  <metadata
     id="metadata5">
    <rdf:RDF>
      <cc:Work
         rdf:about="">
        <dc:format>image/svg+xml</dc:format>
        <dc:type
           rdf:resource="http://purl.org/dc/dcmitype/StillImage" />
        <dc:title />
      </cc:Work>
    </rdf:RDF>
  </metadata>
  <g
     inkscape:label="Слой 1"
     inkscape:groupmode="layer"
     id="layer1">
    <circle
       style="fill:#808000;stroke-width:0.0981656"
       id="path12"
       cx="3.190758"
       cy="3.1800396"
       r="2.8722696" />
    <circle
       style="fill:url(#radialGradient48);fill-opacity:1;stroke-width:0.0605037"
       id="path17"
       cx="2.0705421"
       cy="-4.2290001"
       transform="rotate(90)"
       r="0.54987049" />
    <rect
       style="fill:#ffe680;stroke-width:0.0820806"
       id="rect27-35"
       width="0.27580753"
       height="0.17273378"
       x="-2.4701118"
       y="-4.5369768"
       transform="rotate(135)" />
    <path
       id="rect1001"
       style="fill:#37abc8;fill-opacity:1;stroke:url(#linearGradient1020);stroke-width:0.0918406;stroke-opacity:0.395698"
       d="m 2.0045764,1.3469102 a 0.34834683,0.37848908 0 0 0 -0.345657,0.3784829 0.34834683,0.37848908 0 0 0 0.012736,0.101706 V 3.6626516 A 0.71694148,0.71694148 0 0 0 1.2903021,4.2962064 0.71694148,0.71694148 0 0 0 2.0072671,5.0131717 0.71694148,0.71694148 0 0 0 2.7240527,4.2962064 0.71694148,0.71694148 0 0 0 2.3426998,3.6626516 V 1.8267405 A 0.34834683,0.37848908 0 0 0 2.3556148,1.7253931 0.34834683,0.37848908 0 0 0 2.007267,1.3469102 a 0.34834683,0.37848908 0 0 0 -0.00269,0 z" />
    <rect
       style="fill:#ffffff;fill-opacity:1;stroke:none;stroke-width:0.0953142;stroke-opacity:0.395698"
       id="rect1024"
       width="0.54417205"
       height="0.078507528"
       x="1.6900436"
       y="2.5500391" />
    <rect
       style="fill:#ffffff;fill-opacity:1;stroke:none;stroke-width:0.0953142;stroke-opacity:0.395698"
       id="rect1024-8"
       width="0.54417205"
       height="0.078507528"
       x="1.6900436"
       y="3.3520162" />
    <rect
       style="fill:#ffffff;fill-opacity:1;stroke:none;stroke-width:0.0953142;stroke-opacity:0.395698"
       id="rect1024-7"
       width="0.54417205"
       height="0.078507528"
       x="1.6900436"
       y="1.7480615" />
    <rect
       style="fill:#ffffff;fill-opacity:1;stroke:none;stroke-width:0.0551498;stroke-opacity:0.395698"
       id="rect1024-61-9"
       width="0.22506835"
       height="0.063548706"
       x="1.6900436"
       y="2.1565297" />
    <rect
       style="fill:#ffffff;fill-opacity:1;stroke:none;stroke-width:0.0551498;stroke-opacity:0.395698"
       id="rect1024-61-9-5"
       width="0.22506835"
       height="0.063548706"
       x="1.6900436"
       y="1.9597751" />
    <rect
       style="fill:#ffffff;fill-opacity:1;stroke:none;stroke-width:0.0551498;stroke-opacity:0.395698"
       id="rect1024-61-9-9"
       width="0.22506835"
       height="0.063548706"
       x="1.6900436"
       y="2.3532844" />
    <rect
       style="fill:#ffffff;fill-opacity:1;stroke:none;stroke-width:0.0551498;stroke-opacity:0.395698"
       id="rect1024-61-9-2"
       width="0.22506835"
       height="0.063548706"
       x="1.6900436"
       y="2.7617526" />
    <rect
       style="fill:#ffffff;fill-opacity:1;stroke:none;stroke-width:0.0551498;stroke-opacity:0.395698"
       id="rect1024-61-9-28"
       width="0.22506835"
       height="0.063548706"
       x="1.6900436"
       y="2.9585073" />
    <rect
       style="fill:#ffffff;fill-opacity:1;stroke:none;stroke-width:0.0551498;stroke-opacity:0.395698"
       id="rect1024-61-9-97"
       width="0.22506835"
       height="0.063548706"
       x="1.6900436"
       y="3.1552618" />
    <path
       id="path1154"
       style="fill:url(#radialGradient1162);fill-opacity:1;stroke:none;stroke-width:0.0981656;stroke-opacity:0.395698"
       d="M 1.7844205,3.5255365 V 3.7602136 A 0.58000102,0.58000102 0 0 0 1.4272281,4.2957146 0.58000102,0.58000102 0 0 0 2.0072104,4.875697 0.58000102,0.58000102 0 0 0 2.5871926,4.2957146 0.58000102,0.58000102 0 0 0 2.2300003,3.7602136 V 3.5255365 Z" />
    <rect
       style="fill:#ffe680;stroke-width:0.0820806"
       id="rect27-35-3"
       width="0.27580753"
       height="0.17273378"
       x="-0.83865941"
       y="-4.5369768"
       transform="rotate(135)" />
    <rect
       style="fill:#ffe680;stroke-width:0.0820806"
       id="rect27-35-6"
       width="0.27580753"
       height="0.17273378"
       x="-3.5411177"
       y="-2.1667228"
       transform="scale(-1)" />
    <rect
       style="fill:#ffe680;stroke-width:0.0820806"
       id="rect27-35-1"
       width="0.27580753"
       height="0.17273378"
       x="-3.7729273"
       y="1.4221752"
       transform="rotate(-135)" />
    <rect
       style="fill:#ffe680;stroke-width:0.0820806"
       id="rect27-35-2"
       width="0.27580753"
       height="0.17273378"
       x="1.1383832"
       y="-4.3001232"
       transform="rotate(90)" />
    <rect
       style="fill:#ffe680;stroke-width:0.0820806"
       id="rect27-35-9"
       width="0.27580753"
       height="0.17273378"
       x="-3.0277145"
       y="4.1273899"
       transform="rotate(-90)"
       inkscape:transform-center-x="-0.98657323"
       inkscape:transform-center-y="-0.92103423" />
    <rect
       style="fill:#ffe680;stroke-width:0.0820806"
       id="rect27-35-94"
       width="0.27580753"
       height="0.17273378"
       x="-5.1746178"
       y="-2.1667228"
       transform="scale(-1)" />
    <rect
       style="fill:#ffe680;stroke-width:0.0820806"
       id="rect27-35-7"
       width="0.27580753"
       height="0.17273378"
       x="-5.4124308"
       y="1.4221752"
       transform="rotate(-135)" />
    <path
       id="path1368"
       style="fill:url(#linearGradient1393);fill-opacity:1;stroke:none;stroke-width:0.0981656;stroke-opacity:0.395698"
       d="M 3.9601444,2.8947421 A 0.70454493,0.38535988 0 0 0 3.2737522,3.193457 0.77957756,0.42772847 0 0 0 2.8170521,3.5828601 0.77957756,0.42772847 0 0 0 3.1378158,3.9285486 0.69916245,0.19660992 0 0 0 2.8661349,4.0840414 0.69916245,0.19660992 0 0 0 3.5651814,4.280756 0.69916245,0.19660992 0 0 0 3.6552942,4.2790122 0.64160888,0.40924505 0 0 0 4.2784158,4.5909566 0.64160888,0.40924505 0 0 0 4.9201349,4.1818055 0.64160888,0.40924505 0 0 0 4.9195784,4.1687679 0.78042524,0.18129646 0 0 0 5.438974,3.9979367 0.78042524,0.18129646 0 0 0 5.2756016,3.8869432 0.90714996,0.49357271 0 0 0 5.7196474,3.4626456 0.90714996,0.49357271 0 0 0 4.8125745,2.9689416 0.90714996,0.49357271 0 0 0 4.4590251,3.0080544 0.70454493,0.38535988 0 0 0 3.9601444,2.8947421 Z" />
  </g>
</svg>
