<?xml version="1.0" encoding="UTF-8" standalone="no"?>
<!-- Created with Inkscape (http://www.inkscape.org/) -->

<svg
   xmlns:dc="http://purl.org/dc/elements/1.1/"
   xmlns:cc="http://creativecommons.org/ns#"
   xmlns:rdf="http://www.w3.org/1999/02/22-rdf-syntax-ns#"
   xmlns:svg="http://www.w3.org/2000/svg"
   xmlns="http://www.w3.org/2000/svg"
   xmlns:xlink="http://www.w3.org/1999/xlink"
   xmlns:sodipodi="http://sodipodi.sourceforge.net/DTD/sodipodi-0.dtd"
   xmlns:inkscape="http://www.inkscape.org/namespaces/inkscape"
   width="128"
   height="128"
   viewBox="0 0 33.866667 33.866666"
   version="1.1"
   id="svg1125"
   inkscape:version="0.92.3 (2405546, 2018-03-11)"
   sodipodi:docname="com.gitlab.bitseater.meteo.svg">
  <defs
     id="defs1119">
    <radialGradient
       gradientTransform="matrix(0.77744503,0,0,0.22677767,-41.114167,39.777618)"
       gradientUnits="userSpaceOnUse"
       xlink:href="#b"
       id="y"
       fy="185.297"
       fx="99.189003"
       r="62.769001"
       cy="185.297"
       cx="99.189003" />
    <linearGradient
       id="b">
      <stop
         offset="0"
         id="stop38" />
      <stop
         offset="1"
         stop-opacity="0"
         id="stop40" />
    </linearGradient>
    <radialGradient
       gradientTransform="matrix(0.51829668,0,0,0.16197534,-15.4108,55.853152)"
       gradientUnits="userSpaceOnUse"
       xlink:href="#b"
       id="z"
       fy="185.297"
       fx="99.189003"
       r="62.769001"
       cy="185.297"
       cx="99.189003" />
    <linearGradient
       gradientTransform="matrix(0,2.0333334,-2.0333334,0,101.06667,-34.099484)"
       gradientUnits="userSpaceOnUse"
       y2="32"
       x2="61.5"
       y1="32"
       x1="2.5"
       id="A"
       xlink:href="#i" />
    <linearGradient
       id="i">
      <stop
         offset="0"
         stop-color="#cd9ef7"
         id="stop12" />
      <stop
         offset="1"
         stop-color="#a56de2"
         id="stop14" />
    </linearGradient>
    <linearGradient
       gradientTransform="matrix(4.8053362,0,0,4.8053362,-310.82974,-102.94205)"
       gradientUnits="userSpaceOnUse"
       xlink:href="#a"
       id="B"
       y2="40.495998"
       x2="71.204002"
       y1="15.369"
       x1="71.204002" />
    <linearGradient
       id="a">
      <stop
         offset="0"
         stop-color="#fff"
         id="stop28" />
      <stop
         offset=".424"
         stop-color="#fff"
         stop-opacity=".235"
         id="stop30" />
      <stop
         offset=".821"
         stop-color="#fff"
         stop-opacity=".157"
         id="stop32" />
      <stop
         offset="1"
         stop-color="#fff"
         stop-opacity=".392"
         id="stop34" />
    </linearGradient>
    <linearGradient
       xlink:href="#n"
       id="C"
       gradientUnits="userSpaceOnUse"
       gradientTransform="translate(0,-1)"
       x1="32"
       y1="4"
       x2="32"
       y2="185" />
    <linearGradient
       id="n">
      <stop
         offset="0"
         stop-color="#fff"
         id="stop146" />
      <stop
         offset="1"
         stop-color="#d1ff82"
         id="stop148" />
    </linearGradient>
    <radialGradient
       inkscape:collect="always"
       xlink:href="#linearGradient4272"
       id="radialGradient4278"
       cx="65"
       cy="67"
       fx="65"
       fy="67"
       r="19.5"
       gradientTransform="matrix(1,0,0,2.0769231,-28.408867,-110.53695)"
       gradientUnits="userSpaceOnUse" />
    <linearGradient
       inkscape:collect="always"
       id="linearGradient4272">
      <stop
         style="stop-color:#fafafa;stop-opacity:0.5"
         offset="0"
         id="stop4274" />
      <stop
         style="stop-color:#fafafa;stop-opacity:0.18421052"
         offset="1"
         id="stop4276" />
    </linearGradient>
    <filter
       style="color-interpolation-filters:sRGB"
       inkscape:label="Drop Shadow"
       id="filter4738">
      <feFlood
         flood-opacity="0.498039"
         flood-color="rgb(0,0,0)"
         result="flood"
         id="feFlood4740" />
      <feComposite
         in="flood"
         in2="SourceGraphic"
         operator="out"
         result="composite1"
         id="feComposite4742" />
      <feGaussianBlur
         in="composite1"
         stdDeviation="2"
         result="blur"
         id="feGaussianBlur4744" />
      <feOffset
         dx="1"
         dy="1"
         result="offset"
         id="feOffset4746" />
      <feComposite
         in="offset"
         in2="SourceGraphic"
         operator="atop"
         result="composite2"
         id="feComposite4748" />
    </filter>
  </defs>
  <sodipodi:namedview
     id="base"
     pagecolor="#ffffff"
     bordercolor="#666666"
     borderopacity="1.0"
     inkscape:pageopacity="0.0"
     inkscape:pageshadow="2"
     inkscape:zoom="1"
     inkscape:cx="-336.7941"
     inkscape:cy="28.944548"
     inkscape:document-units="mm"
     inkscape:current-layer="g211"
     showgrid="true"
     showguides="true"
     fit-margin-top="0"
     fit-margin-left="0"
     fit-margin-right="0"
     fit-margin-bottom="0"
     units="px"
     inkscape:window-width="1920"
     inkscape:window-height="1017"
     inkscape:window-x="0"
     inkscape:window-y="30"
     inkscape:window-maximized="1">
    <inkscape:grid
       type="xygrid"
       id="grid1773"
       originx="-90.449703"
       originy="-139.04865"
       dotted="false" />
  </sodipodi:namedview>
  <metadata
     id="metadata1122">
    <rdf:RDF>
      <cc:Work
         rdf:about="">
        <dc:format>image/svg+xml</dc:format>
        <dc:type
           rdf:resource="http://purl.org/dc/dcmitype/StillImage" />
        <dc:title></dc:title>
        <cc:license
           rdf:resource="http://www.gnu.org/licenses/gpl-3.0.html" />
        <dc:creator>
          <cc:Agent>
            <dc:title>Carlos Suárez</dc:title>
          </cc:Agent>
        </dc:creator>
      </cc:Work>
    </rdf:RDF>
  </metadata>
  <g
     inkscape:label="Capa 1"
     inkscape:groupmode="layer"
     id="layer1"
     transform="translate(-90.449702,-124.08469)">
    <g
       transform="matrix(0.26458333,0,0,0.26458333,98.122619,132.54269)"
       id="g211">
      <path
         style="opacity:0.2;fill:url(#y);stroke-width:2.0333333"
         inkscape:connector-curvature="0"
         d="m 84.800001,81.800517 a 48.800001,14.2313 0 1 1 -97.600002,0 48.800001,14.2313 0 1 1 97.600002,0 z"
         id="path193" />
      <path
         style="opacity:0.4;fill:url(#z);stroke-width:2.0333333"
         inkscape:connector-curvature="0"
         d="m 68.533334,85.867184 a 32.533334,10.164633 0 1 1 -65.0666677,0 32.533334,10.164633 0 1 1 65.0666677,0 z"
         id="path195" />
      <path
         inkscape:connector-curvature="0"
         style="color:#000000;overflow:visible;fill:url(#A);stroke-width:2.0333333;marker:none"
         d="m 95.983334,30.967183 c 0,-33.0965668 -26.886767,-59.983334 -59.983334,-59.983334 -33.096567,0 -59.983334,26.8867672 -59.983334,59.983334 0,33.096567 26.886767,59.983334 59.983334,59.983334 33.096567,0 59.983334,-26.886767 59.983334,-59.983334 z"
         overflow="visible"
         id="path197" />
      <path
         inkscape:connector-curvature="0"
         style="color:#000000;overflow:visible;opacity:0.5;fill:none;stroke:#452981;stroke-width:2.0333333;marker:none"
         d="m 36,-29.016151 c -33.096567,0 -59.983334,26.8867672 -59.983334,59.983334 0,33.096567 26.886767,59.983334 59.983334,59.983334 33.096567,0 59.983334,-26.886767 59.983334,-59.983334 0,-33.0965668 -26.886767,-59.983334 -59.983334,-59.983334 z"
         overflow="visible"
         id="path199" />
      <path
         inkscape:connector-curvature="0"
         style="color:#000000;overflow:visible;opacity:0.5;fill:none;stroke:url(#B);stroke-width:2.0333333;stroke-linecap:round;stroke-linejoin:round;marker:none"
         d="m 93.950001,30.967183 c 0,32.004667 -25.945334,57.950001 -57.950001,57.950001 -32.004667,0 -57.950001,-25.945334 -57.950001,-57.950001 0,-32.0046668 25.945334,-57.95 57.950001,-57.95 32.004667,0 57.950001,25.9453332 57.950001,57.95 z"
         overflow="visible"
         id="path201" />
      <path
         style="color:#000000;clip-rule:nonzero;display:inline;overflow:visible;visibility:visible;opacity:1;isolation:auto;mix-blend-mode:normal;color-interpolation:sRGB;color-interpolation-filters:linearRGB;solid-color:#000000;solid-opacity:1;fill:none;fill-opacity:1;fill-rule:evenodd;stroke:#0e141f;stroke-width:5;stroke-linecap:butt;stroke-linejoin:miter;stroke-miterlimit:4;stroke-dasharray:none;stroke-dashoffset:0;stroke-opacity:0.5;color-rendering:auto;image-rendering:auto;shape-rendering:auto;text-rendering:auto;enable-background:accumulate"
         d="M 36.921125,-10.383087 A 10.922661,11.122311 0 0 0 25.996875,0.73918293 10.922661,11.122311 0 0 0 26.201425,2.8300832 V 34.600473 a 19.500141,19.51258 0 0 0 -9.110292,16.50332 19.500141,19.51258 0 0 0 19.500002,19.51312 19.500141,19.51258 0 0 0 19.5,-19.51312 19.500141,19.51258 0 0 0 -8.49663,-16.10811 V 3.0714832 A 10.922661,11.122311 0 0 0 47.843435,0.73918293 10.922661,11.122311 0 0 0 36.921125,-10.383087 Z"
         id="path4209-5"
         inkscape:connector-curvature="0" />
      <g
         style="filter:url(#filter4738)"
         id="sketches"
         transform="matrix(0.52545156,-0.52545156,0.52076002,0.52076002,58.179825,31.532903)" />
      <path
         style="color:#000000;clip-rule:nonzero;display:inline;overflow:visible;visibility:visible;opacity:1;isolation:auto;mix-blend-mode:normal;color-interpolation:sRGB;color-interpolation-filters:linearRGB;solid-color:#000000;solid-opacity:1;fill:#0e141f;fill-opacity:1;fill-rule:evenodd;stroke:#273445;stroke-width:5;stroke-linecap:butt;stroke-linejoin:miter;stroke-miterlimit:4;stroke-dasharray:none;stroke-dashoffset:0;stroke-opacity:1;color-rendering:auto;image-rendering:auto;shape-rendering:auto;text-rendering:auto;enable-background:accumulate"
         d="m 36.921125,-11.383087 a 10.922661,11.122311 0 0 0 -10.92425,11.12226993 10.922661,11.122311 0 0 0 0.20455,2.09089997 V 33.600473 a 19.500141,19.51258 0 0 0 -9.110292,16.50332 19.500141,19.51258 0 0 0 19.500002,19.51312 19.500141,19.51258 0 0 0 19.5,-19.51312 19.500141,19.51258 0 0 0 -8.49663,-16.10811 V 2.0714929 a 10.922661,11.122311 0 0 0 0.24893,-2.33230997 10.922661,11.122311 0 0 0 -10.92231,-11.12226993 z"
         id="path4209"
         inkscape:connector-curvature="0" />
      <circle
         style="color:#000000;clip-rule:nonzero;display:inline;overflow:visible;visibility:visible;opacity:1;isolation:auto;mix-blend-mode:normal;color-interpolation:sRGB;color-interpolation-filters:linearRGB;solid-color:#000000;solid-opacity:1;fill:#64baff;fill-opacity:1;fill-rule:evenodd;stroke:#64baff;stroke-width:5;stroke-linecap:round;stroke-linejoin:round;stroke-miterlimit:4;stroke-dasharray:none;stroke-dashoffset:0;stroke-opacity:1;color-rendering:auto;image-rendering:auto;shape-rendering:auto;text-rendering:auto;enable-background:accumulate"
         id="path4232"
         cx="36.591133"
         cy="50.616913"
         r="7.5" />
      <path
         style="fill:none;fill-rule:evenodd;stroke:#fafafa;stroke-width:4.99999952;stroke-linecap:round;stroke-linejoin:round;stroke-miterlimit:4;stroke-dasharray:none;stroke-opacity:1"
         d="M 36.591135,0.49043293 V 16.652023 Z"
         id="path4222-7"
         inkscape:connector-curvature="0" />
      <path
         style="fill:none;fill-rule:evenodd;stroke:#64baff;stroke-width:4.99999952;stroke-linecap:round;stroke-linejoin:round;stroke-miterlimit:4;stroke-dasharray:none;stroke-opacity:1"
         d="m 36.591135,16.688993 v 31.74409 z"
         id="path4222"
         inkscape:connector-curvature="0" />
      <path
         style="color:#000000;clip-rule:nonzero;display:inline;overflow:visible;visibility:visible;opacity:1;isolation:auto;mix-blend-mode:normal;color-interpolation:sRGB;color-interpolation-filters:linearRGB;solid-color:#000000;solid-opacity:1;fill:url(#radialGradient4278);fill-opacity:1;fill-rule:evenodd;stroke:none;stroke-width:5;stroke-linecap:butt;stroke-linejoin:miter;stroke-miterlimit:4;stroke-dasharray:none;stroke-dashoffset:0;stroke-opacity:1;color-rendering:auto;image-rendering:auto;shape-rendering:auto;text-rendering:auto;enable-background:accumulate"
         d="m 36.921125,-11.883097 a 10.922661,11.122311 0 0 0 -10.92425,11.12226993 10.922661,11.122311 0 0 0 0.20455,2.09089997 V 33.100463 a 19.500141,19.51258 0 0 0 -9.110292,16.50332 19.500141,19.51258 0 0 0 19.500002,19.51313 19.500141,19.51258 0 0 0 19.5,-19.51313 19.500141,19.51258 0 0 0 -8.49663,-16.10811 V 1.5714829 a 10.922661,11.122311 0 0 0 0.24893,-2.33230997 10.922661,11.122311 0 0 0 -10.92231,-11.12226993 z"
         id="path4209-6"
         inkscape:connector-curvature="0" />
    </g>
  </g>
</svg>
