<?xml version="1.0" encoding="UTF-8" standalone="no"?>
<svg
   xmlns:dc="http://purl.org/dc/elements/1.1/"
   xmlns:cc="http://creativecommons.org/ns#"
   xmlns:rdf="http://www.w3.org/1999/02/22-rdf-syntax-ns#"
   xmlns:svg="http://www.w3.org/2000/svg"
   xmlns="http://www.w3.org/2000/svg"
   xmlns:xlink="http://www.w3.org/1999/xlink"
   xmlns:sodipodi="http://sodipodi.sourceforge.net/DTD/sodipodi-0.dtd"
   xmlns:inkscape="http://www.inkscape.org/namespaces/inkscape"
   width="32"
   height="32"
   viewBox="0 0 8.4666667 8.4666667"
   version="1.1"
   id="svg8"
   inkscape:version="1.0.1 (3bc2e813f5, 2020-09-07)"
   sodipodi:docname="io.elementary.meteo.svg">
  <defs
     id="defs2">
    <linearGradient
       inkscape:collect="always"
       id="linearGradient54">
      <stop
         style="stop-color:#f2f2f2;stop-opacity:1"
         offset="0"
         id="stop50" />
      <stop
         style="stop-color:#ffb380;stop-opacity:1"
         offset="1"
         id="stop52" />
    </linearGradient>
    <linearGradient
       inkscape:collect="always"
       id="linearGradient1391">
      <stop
         style="stop-color:#ececec;stop-opacity:1;"
         offset="0"
         id="stop1387" />
      <stop
         style="stop-color:#ececec;stop-opacity:1"
         offset="0.40867913"
         id="stop1395" />
      <stop
         style="stop-color:#cccccc;stop-opacity:1"
         offset="1"
         id="stop1389" />
    </linearGradient>
    <linearGradient
       inkscape:collect="always"
       id="linearGradient1160">
      <stop
         style="stop-color:#ffffff;stop-opacity:1;"
         offset="0"
         id="stop1156" />
      <stop
         style="stop-color:#ffffff;stop-opacity:0;"
         offset="1"
         id="stop1158" />
    </linearGradient>
    <linearGradient
       inkscape:collect="always"
       id="linearGradient1018">
      <stop
         style="stop-color:#aaccff;stop-opacity:1"
         offset="0"
         id="stop1014" />
      <stop
         style="stop-color:#00112b;stop-opacity:1"
         offset="1"
         id="stop1016" />
    </linearGradient>
    <linearGradient
       inkscape:collect="always"
       xlink:href="#linearGradient1018"
       id="linearGradient1020"
       x1="7.1992192"
       y1="34.352524"
       x2="23.810547"
       y2="34.352524"
       gradientUnits="userSpaceOnUse"
       gradientTransform="matrix(0.12117073,0,0,0.12117073,0.84973499,0.10115796)" />
    <radialGradient
       inkscape:collect="always"
       xlink:href="#linearGradient1160"
       id="radialGradient1162"
       cx="4.9719791"
       cy="10.816138"
       fx="4.9719791"
       fy="10.816138"
       r="1.5632626"
       gradientUnits="userSpaceOnUse"
       gradientTransform="matrix(0.24755948,0.56342076,-0.44815799,0.19691027,6.1727606,0.48264199)" />
    <linearGradient
       inkscape:collect="always"
       xlink:href="#linearGradient1391"
       id="linearGradient1393"
       x1="9.0546036"
       y1="8.9863901"
       x2="13.366254"
       y2="10.567266"
       gradientUnits="userSpaceOnUse"
       gradientTransform="matrix(0.48950917,0,0,0.48950917,0.14553295,0.11916773)" />
    <radialGradient
       inkscape:collect="always"
       xlink:href="#linearGradient54"
       id="radialGradient56"
       cx="2.6196227"
       cy="-5.3317161"
       fx="2.6196227"
       fy="-5.3317161"
       r="0.84390485"
       gradientUnits="userSpaceOnUse"
       gradientTransform="matrix(0.67146987,-0.56664223,0.55148203,0.65350571,3.8250121,-0.41392824)" />
  </defs>
  <sodipodi:namedview
     id="base"
     pagecolor="#ffffff"
     bordercolor="#666666"
     borderopacity="1.0"
     inkscape:pageopacity="0.0"
     inkscape:pageshadow="2"
     inkscape:zoom="22.4"
     inkscape:cx="18.279919"
     inkscape:cy="16.749388"
     inkscape:document-units="px"
     inkscape:current-layer="layer1"
     inkscape:document-rotation="0"
     showgrid="false"
     units="px"
     inkscape:window-width="1280"
     inkscape:window-height="961"
     inkscape:window-x="1440"
     inkscape:window-y="30"
     inkscape:window-maximized="1" />
  <metadata
     id="metadata5">
    <rdf:RDF>
      <cc:Work
         rdf:about="">
        <dc:format>image/svg+xml</dc:format>
        <dc:type
           rdf:resource="http://purl.org/dc/dcmitype/StillImage" />
        <dc:title />
      </cc:Work>
    </rdf:RDF>
  </metadata>
  <g
     inkscape:label="Слой 1"
     inkscape:groupmode="layer"
     id="layer1">
    <circle
       style="fill:#808000;stroke-width:0.129516"
       id="path12"
       cx="4.2900443"
       cy="4.263679"
       r="3.7895639" />
    <circle
       style="fill:url(#radialGradient56);fill-opacity:1;stroke-width:0.0794025"
       id="path17"
       cx="2.8088489"
       cy="-5.6460242"
       transform="rotate(90)"
       r="0.7216261" />
    <rect
       style="fill:#ffe680;stroke-width:0.108294"
       id="rect27-35"
       width="0.36389002"
       height="0.2278984"
       x="-3.267616"
       y="-6.0908031"
       transform="rotate(135)" />
    <path
       id="rect1001"
       style="fill:#37abc8;fill-opacity:1;stroke:url(#linearGradient1020);stroke-width:0.121171;stroke-opacity:0.395698"
       d="m 2.7250413,1.8451173 a 0.45959562,0.49936416 0 0 0 -0.4560467,0.499356 0.45959562,0.49936416 0 0 0 0.016803,0.1341871 V 4.9004188 A 0.94590543,0.94590543 0 0 0 1.7826549,5.736307 0.94590543,0.94590543 0 0 0 2.7285913,6.6822439 0.94590543,0.94590543 0 0 0 3.6742911,5.736307 0.94590543,0.94590543 0 0 0 3.1711485,4.9004188 V 2.4781872 a 0.45959562,0.49936416 0 0 0 0.017039,-0.1337139 0.45959562,0.49936416 0 0 0 -0.4595968,-0.499356 0.45959562,0.49936416 0 0 0 -0.00355,0 z" />
    <rect
       style="fill:#ffffff;fill-opacity:1;stroke:none;stroke-width:0.125754;stroke-opacity:0.395698"
       id="rect1024"
       width="0.71796"
       height="0.10357986"
       x="2.3100586"
       y="3.4324801" />
    <rect
       style="fill:#ffffff;fill-opacity:1;stroke:none;stroke-width:0.125754;stroke-opacity:0.395698"
       id="rect1024-8"
       width="0.71796"
       height="0.10357986"
       x="2.3100586"
       y="4.4905782" />
    <rect
       style="fill:#ffffff;fill-opacity:1;stroke:none;stroke-width:0.125754;stroke-opacity:0.395698"
       id="rect1024-7"
       width="0.71796"
       height="0.10357986"
       x="2.3100586"
       y="2.3743811" />
    <rect
       style="fill:#ffffff;fill-opacity:1;stroke:none;stroke-width:0.0727625;stroke-opacity:0.395698"
       id="rect1024-61-9"
       width="0.29694664"
       height="0.083843753"
       x="2.3100586"
       y="2.9132986" />
    <rect
       style="fill:#ffffff;fill-opacity:1;stroke:none;stroke-width:0.0727625;stroke-opacity:0.395698"
       id="rect1024-61-9-5"
       width="0.29694664"
       height="0.083843753"
       x="2.3100586"
       y="2.653708" />
    <rect
       style="fill:#ffffff;fill-opacity:1;stroke:none;stroke-width:0.0727625;stroke-opacity:0.395698"
       id="rect1024-61-9-9"
       width="0.29694664"
       height="0.083843753"
       x="2.3100586"
       y="3.1728892" />
    <rect
       style="fill:#ffffff;fill-opacity:1;stroke:none;stroke-width:0.0727625;stroke-opacity:0.395698"
       id="rect1024-61-9-2"
       width="0.29694664"
       height="0.083843753"
       x="2.3100586"
       y="3.7118068" />
    <rect
       style="fill:#ffffff;fill-opacity:1;stroke:none;stroke-width:0.0727625;stroke-opacity:0.395698"
       id="rect1024-61-9-28"
       width="0.29694664"
       height="0.083843753"
       x="2.3100586"
       y="3.9713974" />
    <rect
       style="fill:#ffffff;fill-opacity:1;stroke:none;stroke-width:0.0727625;stroke-opacity:0.395698"
       id="rect1024-61-9-97"
       width="0.29694664"
       height="0.083843753"
       x="2.3100586"
       y="4.230988" />
    <path
       id="path1154"
       style="fill:url(#radialGradient1162);fill-opacity:1;stroke:none;stroke-width:0.129516;stroke-opacity:0.395698"
       d="M 2.434576,4.7195143 V 5.0291384 A 0.76523138,0.76523138 0 0 0 1.9633098,5.7356581 0.76523138,0.76523138 0 0 0 2.7285165,6.5008649 0.76523138,0.76523138 0 0 0 3.4937231,5.7356581 0.76523138,0.76523138 0 0 0 3.0224571,5.0291384 V 4.7195143 Z" />
    <rect
       style="fill:#ffe680;stroke-width:0.108294"
       id="rect27-35-3"
       width="0.36389002"
       height="0.2278984"
       x="-1.1151392"
       y="-6.0908031"
       transform="rotate(135)" />
    <rect
       style="fill:#ffe680;stroke-width:0.108294"
       id="rect27-35-6"
       width="0.36389002"
       height="0.2278984"
       x="-4.7522955"
       y="-2.9267468"
       transform="scale(-1)" />
    <rect
       style="fill:#ffe680;stroke-width:0.108294"
       id="rect27-35-1"
       width="0.36389002"
       height="0.2278984"
       x="-5.0827456"
       y="1.8850079"
       transform="rotate(-135)" />
    <rect
       style="fill:#ffe680;stroke-width:0.108294"
       id="rect27-35-2"
       width="0.36389002"
       height="0.2278984"
       x="1.5699944"
       y="-5.7536988"
       transform="rotate(90)" />
    <rect
       style="fill:#ffe680;stroke-width:0.108294"
       id="rect27-35-9"
       width="0.36389002"
       height="0.2278984"
       x="-4.0627069"
       y="5.5258007"
       transform="rotate(-90)"
       inkscape:transform-center-x="-1.3016472"
       inkscape:transform-center-y="-1.2151776" />
    <rect
       style="fill:#ffe680;stroke-width:0.108294"
       id="rect27-35-94"
       width="0.36389002"
       height="0.2278984"
       x="-6.9074736"
       y="-2.9267468"
       transform="scale(-1)" />
    <rect
       style="fill:#ffe680;stroke-width:0.108294"
       id="rect27-35-7"
       width="0.36389002"
       height="0.2278984"
       x="-7.2458444"
       y="1.8850079"
       transform="rotate(-135)" />
    <path
       id="path1368"
       style="fill:url(#linearGradient1393);fill-opacity:1;stroke:none;stroke-width:0.129516;stroke-opacity:0.395698"
       d="M 5.3051436,3.8872681 A 0.9295499,0.50842923 0 0 0 4.3995438,4.2813812 1.0285451,0.56432874 0 0 0 3.796991,4.7951449 1.0285451,0.56432874 0 0 0 4.2201945,5.2512333 0.92244845,0.25939968 0 0 0 3.8617489,5.4563846 0.92244845,0.25939968 0 0 0 4.7840444,5.7159223 0.92244845,0.25939968 0 0 0 4.9029359,5.7136217 0.84651446,0.53994242 0 0 0 5.7250589,6.1251893 0.84651446,0.53994242 0 0 0 6.5717188,5.5853708 0.84651446,0.53994242 0 0 0 6.5709845,5.5681695 1.0296635,0.23919568 0 0 0 7.2562554,5.3427813 1.0296635,0.23919568 0 0 0 7.040708,5.1963407 1.1968593,0.65120114 0 0 0 7.6265653,4.6365384 1.1968593,0.65120114 0 0 0 6.4298076,3.9851641 1.1968593,0.65120114 0 0 0 5.963348,4.0367681 0.9295499,0.50842923 0 0 0 5.3051436,3.8872681 Z" />
  </g>
</svg>
